<svg
  xmlns="http://www.w3.org/2000/svg"
>
  <symbol id="apple-1" 
    stroke="currentColor"
    fill="currentColor"
  >
  <ellipse cx="266.5" cy="393.5" rx="107.5" ry="10.5" fill="inherit"/>
  <path d="M428 221.5c-11.979-106.645-125.167-85.501-168.5-64.001C44 90.997 81.5 408.5 289 393.5c48-3.47 152.871-48.5 139-172Z" fill="#fff" stroke="inherit" stroke-linejoin="round"/>
  <path d="M229.673 84.852 246 154l13.5 3.5-18.282-75.532a3 3 0 0 0-3.673-2.197l-5.709 1.49a3 3 0 0 0-2.163 3.591ZM345.261 58.104c-52.891 14.442-81.674 60-89.761 82.396l4 17c28-13.5 57-17 73-17.5 17.304-3.807 22.756-44.446 24.127-72.495.305-6.245-5.334-11.047-11.366-9.4Z" fill="#fff" stroke="inherit" stroke-linejoin="round"/>
  <mask id="a" style="mask-type:alpha" maskUnits="userSpaceOnUse" x="255" y="57" width="103" height="101">
    <path d="M345.261 58.104c-52.891 14.442-81.674 60-89.761 82.396l4 17c28-13.5 57-17 73-17.5 17.304-3.807 22.756-44.446 24.127-72.495.305-6.245-5.334-11.047-11.366-9.4Z" fill="#fff" stroke="inherit" stroke-linejoin="round"/>
  </mask>
  <g mask="url(#a)">
    <path d="m255.5 162 106-112-7.5 101.5-98.5 10.5Z" fill="inherit" stroke="inherit" stroke-linejoin="round"/>
  </g>
  <mask id="b" fill="#fff">
    <path fill-rule="evenodd" clip-rule="evenodd" d="M389 204H138v14h4.165a25.864 25.864 0 0 0-.165 3.042C142 242.558 162.819 260 188.5 260c18.462 0 34.411-9.014 41.919-22.076C237.976 250.963 254.425 260 273.5 260c26.234 0 47.5-17.093 47.5-38.179 0-1.442-.1-2.71-.293-3.821H389v-14Z"/>
  </mask>
  <path fill-rule="evenodd" clip-rule="evenodd" d="M389 204H138v14h4.165a25.864 25.864 0 0 0-.165 3.042C142 242.558 162.819 260 188.5 260c18.462 0 34.411-9.014 41.919-22.076C237.976 250.963 254.425 260 273.5 260c26.234 0 47.5-17.093 47.5-38.179 0-1.442-.1-2.71-.293-3.821H389v-14Z" fill="inherit"/>
  <path d="M138 204h-1v-1h1v1Zm251 0v-1h1v1h-1Zm-251 14v1h-1v-1h1Zm4.165 0v-1h1.126l-.133 1.118-.993-.118Zm88.254 19.924-.867-.498.864-1.502.868 1.499-.865.501ZM320.707 218l-.986.172-.204-1.172h1.19v1ZM389 218h1v1h-1v-1Zm-251-15h251v2H138v-2Zm-1 15v-14h2v14h-2Zm5.165 1H138v-2h4.165v2ZM141 221.042c0-1.146.057-2.198.172-3.16l1.986.236a24.794 24.794 0 0 0-.158 2.924h-2ZM188.5 261c-26.06 0-47.5-17.731-47.5-39.958h2C143 241.847 163.198 259 188.5 259v2Zm42.786-22.578C223.576 251.835 207.27 261 188.5 261v-2c18.154 0 33.746-8.864 41.052-21.574l1.734.996Zm-.002-.999C238.631 250.1 254.716 259 273.5 259v2c-19.366 0-36.18-9.175-43.946-22.574l1.73-1.003ZM273.5 259c25.896 0 46.5-16.838 46.5-37.179h2C322 243.652 300.071 261 273.5 261v-2Zm46.5-37.179c0-1.398-.097-2.607-.279-3.649l1.971-.344c.205 1.179.308 2.506.308 3.993h-2ZM389 219h-68.293v-2H389v2Zm1-15v14h-2v-14h2Z" fill="inherit" mask="url(#b)"/>
  <path d="M194.535 226.506 183.615 207h-14.384l7.832 13.314c1.775 3.019-.401 6.825-3.904 6.825-3.554 0-5.723 3.908-3.843 6.924L183.615 257H198l-10.671-18.03c-1.64-2.772.358-6.276 3.578-6.276 3.177 0 5.18-3.417 3.628-6.188ZM278.897 226.794 268.487 207h-13.513l7.529 13.624c1.617 2.927-.5 6.515-3.843 6.515-3.392 0-5.503 3.682-3.789 6.61L268.487 257H282l-10.186-18.322c-1.493-2.684.448-5.984 3.519-5.984 3.029 0 4.974-3.219 3.564-5.9Z" fill="#fff"/>
  <path d="M238 301.666c8.807 2.363 30.028 3.737 44.463-9.666" stroke="inherit" stroke-linecap="round" stroke-linejoin="round"/>
  <path d="M280.5 281.5c-1 3.833-.3 12.198 10.5 15" stroke="inherit" stroke-linejoin="round"/>
  </symbol>
</svg>